G04 #@! TF.GenerationSoftware,KiCad,Pcbnew,6.0.11*
G04 #@! TF.CreationDate,2023-02-26T14:58:43+01:00*
G04 #@! TF.ProjectId,patchloop2,70617463-686c-46f6-9f70-322e6b696361,1*
G04 #@! TF.SameCoordinates,PX5f5e100PY5d81fd0*
G04 #@! TF.FileFunction,Paste,Top*
G04 #@! TF.FilePolarity,Positive*
%FSLAX46Y46*%
G04 Gerber Fmt 4.6, Leading zero omitted, Abs format (unit mm)*
G04 Created by KiCad (PCBNEW 6.0.11) date 2023-02-26 14:58:43*
%MOMM*%
%LPD*%
G01*
G04 APERTURE LIST*
G04 Aperture macros list*
%AMRoundRect*
0 Rectangle with rounded corners*
0 $1 Rounding radius*
0 $2 $3 $4 $5 $6 $7 $8 $9 X,Y pos of 4 corners*
0 Add a 4 corners polygon primitive as box body*
4,1,4,$2,$3,$4,$5,$6,$7,$8,$9,$2,$3,0*
0 Add four circle primitives for the rounded corners*
1,1,$1+$1,$2,$3*
1,1,$1+$1,$4,$5*
1,1,$1+$1,$6,$7*
1,1,$1+$1,$8,$9*
0 Add four rect primitives between the rounded corners*
20,1,$1+$1,$2,$3,$4,$5,0*
20,1,$1+$1,$4,$5,$6,$7,0*
20,1,$1+$1,$6,$7,$8,$9,0*
20,1,$1+$1,$8,$9,$2,$3,0*%
G04 Aperture macros list end*
G04 #@! TA.AperFunction,Profile*
%ADD10C,0.100000*%
G04 #@! TD*
%ADD11RoundRect,0.175000X1.325000X-0.175000X1.325000X0.175000X-1.325000X0.175000X-1.325000X-0.175000X0*%
%ADD12RoundRect,0.625000X1.525000X-0.625000X1.525000X0.625000X-1.525000X0.625000X-1.525000X-0.625000X0*%
%ADD13RoundRect,0.175000X-1.325000X0.175000X-1.325000X-0.175000X1.325000X-0.175000X1.325000X0.175000X0*%
%ADD14RoundRect,0.625000X-1.525000X0.625000X-1.525000X-0.625000X1.525000X-0.625000X1.525000X0.625000X0*%
%ADD15R,0.760000X1.400000*%
G04 APERTURE END LIST*
D10*
X0Y3050000D02*
G75*
G03*
X3000000Y50000I3000000J0D01*
G01*
X33000000Y50000D02*
G75*
G03*
X36000000Y3050000I0J3000000D01*
G01*
X36000000Y35050000D02*
G75*
G03*
X33000000Y38050000I-3000000J0D01*
G01*
X36000000Y28150000D02*
X28000000Y28150000D01*
X36000000Y14550000D02*
X36000000Y3050000D01*
X28000000Y28150000D02*
X28000000Y14550000D01*
X3000000Y38050000D02*
X33000000Y38050000D01*
X3000000Y38050000D02*
G75*
G03*
X0Y35050000I0J-3000000D01*
G01*
X0Y28150000D02*
X8000000Y28150000D01*
X0Y14550000D02*
X0Y3050000D01*
X36000000Y35050000D02*
X36000000Y28150000D01*
X8000000Y14550000D02*
X0Y14550000D01*
X8000000Y28150000D02*
X8000000Y14550000D01*
X28000000Y14550000D02*
X36000000Y14550000D01*
X3000000Y50000D02*
X33000000Y50000D01*
X0Y35050000D02*
X0Y28150000D01*
D11*
X25550000Y17780000D03*
X25550000Y18800000D03*
X25550000Y19820000D03*
X25550000Y20840000D03*
X25550000Y21860000D03*
X25550000Y22880000D03*
X25550000Y23900000D03*
X25550000Y24920000D03*
D12*
X32950000Y29800000D03*
X32950000Y12900000D03*
D13*
X10450000Y24920000D03*
X10450000Y23900000D03*
X10450000Y22880000D03*
X10450000Y21860000D03*
X10450000Y20840000D03*
X10450000Y19820000D03*
X10450000Y18800000D03*
X10450000Y17780000D03*
D14*
X3050000Y12900000D03*
X3050000Y29800000D03*
D15*
X16630000Y10835000D03*
X19170000Y10835000D03*
X19170000Y14265000D03*
X17900000Y14265000D03*
X16630000Y14265000D03*
M02*
