G04 #@! TF.GenerationSoftware,KiCad,Pcbnew,6.0.11*
G04 #@! TF.CreationDate,2023-02-26T14:58:43+01:00*
G04 #@! TF.ProjectId,patchloop2,70617463-686c-46f6-9f70-322e6b696361,1*
G04 #@! TF.SameCoordinates,PX5f5e100PY5d81fd0*
G04 #@! TF.FileFunction,Legend,Top*
G04 #@! TF.FilePolarity,Positive*
%FSLAX46Y46*%
G04 Gerber Fmt 4.6, Leading zero omitted, Abs format (unit mm)*
G04 Created by KiCad (PCBNEW 6.0.11) date 2023-02-26 14:58:43*
%MOMM*%
%LPD*%
G01*
G04 APERTURE LIST*
G04 Aperture macros list*
%AMRoundRect*
0 Rectangle with rounded corners*
0 $1 Rounding radius*
0 $2 $3 $4 $5 $6 $7 $8 $9 X,Y pos of 4 corners*
0 Add a 4 corners polygon primitive as box body*
4,1,4,$2,$3,$4,$5,$6,$7,$8,$9,$2,$3,0*
0 Add four circle primitives for the rounded corners*
1,1,$1+$1,$2,$3*
1,1,$1+$1,$4,$5*
1,1,$1+$1,$6,$7*
1,1,$1+$1,$8,$9*
0 Add four rect primitives between the rounded corners*
20,1,$1+$1,$2,$3,$4,$5,0*
20,1,$1+$1,$4,$5,$6,$7,0*
20,1,$1+$1,$6,$7,$8,$9,0*
20,1,$1+$1,$8,$9,$2,$3,0*%
G04 Aperture macros list end*
G04 #@! TA.AperFunction,Profile*
%ADD10C,0.100000*%
G04 #@! TD*
%ADD11C,0.150000*%
%ADD12C,0.120000*%
%ADD13C,0.360000*%
%ADD14C,2.000000*%
%ADD15RoundRect,0.175000X1.325000X-0.175000X1.325000X0.175000X-1.325000X0.175000X-1.325000X-0.175000X0*%
%ADD16RoundRect,0.625000X1.525000X-0.625000X1.525000X0.625000X-1.525000X0.625000X-1.525000X-0.625000X0*%
%ADD17C,1.200000*%
%ADD18RoundRect,0.175000X-1.325000X0.175000X-1.325000X-0.175000X1.325000X-0.175000X1.325000X0.175000X0*%
%ADD19RoundRect,0.625000X-1.525000X0.625000X-1.525000X-0.625000X1.525000X-0.625000X1.525000X0.625000X0*%
%ADD20C,2.250000*%
%ADD21C,5.600000*%
%ADD22R,0.760000X1.400000*%
G04 APERTURE END LIST*
D10*
X0Y3050000D02*
G75*
G03*
X3000000Y50000I3000000J0D01*
G01*
X33000000Y50000D02*
G75*
G03*
X36000000Y3050000I0J3000000D01*
G01*
X36000000Y35050000D02*
G75*
G03*
X33000000Y38050000I-3000000J0D01*
G01*
X36000000Y28150000D02*
X28000000Y28150000D01*
X36000000Y14550000D02*
X36000000Y3050000D01*
X28000000Y28150000D02*
X28000000Y14550000D01*
X3000000Y38050000D02*
X33000000Y38050000D01*
X3000000Y38050000D02*
G75*
G03*
X0Y35050000I0J-3000000D01*
G01*
X0Y28150000D02*
X8000000Y28150000D01*
X0Y14550000D02*
X0Y3050000D01*
X36000000Y35050000D02*
X36000000Y28150000D01*
X8000000Y14550000D02*
X0Y14550000D01*
X8000000Y28150000D02*
X8000000Y14550000D01*
X28000000Y14550000D02*
X36000000Y14550000D01*
X3000000Y50000D02*
X33000000Y50000D01*
X0Y35050000D02*
X0Y28150000D01*
D11*
X39002380Y24716667D02*
X39716666Y24716667D01*
X39859523Y24669048D01*
X39954761Y24573810D01*
X40002380Y24430953D01*
X40002380Y24335715D01*
X40002380Y25716667D02*
X40002380Y25145239D01*
X40002380Y25430953D02*
X39002380Y25430953D01*
X39145238Y25335715D01*
X39240476Y25240477D01*
X39288095Y25145239D01*
X-3002381Y17983334D02*
X-3716667Y17983334D01*
X-3859524Y18030953D01*
X-3954762Y18126191D01*
X-4002381Y18269048D01*
X-4002381Y18364286D01*
X-3002381Y17602381D02*
X-3002381Y16983334D01*
X-3383334Y17316667D01*
X-3383334Y17173810D01*
X-3430953Y17078572D01*
X-3478572Y17030953D01*
X-3573810Y16983334D01*
X-3811905Y16983334D01*
X-3907143Y17030953D01*
X-3954762Y17078572D01*
X-4002381Y17173810D01*
X-4002381Y17459524D01*
X-3954762Y17554762D01*
X-3907143Y17602381D01*
X22152380Y4016667D02*
X22866666Y4016667D01*
X23009523Y3969048D01*
X23104761Y3873810D01*
X23152380Y3730953D01*
X23152380Y3635715D01*
X22247619Y4445239D02*
X22200000Y4492858D01*
X22152380Y4588096D01*
X22152380Y4826191D01*
X22200000Y4921429D01*
X22247619Y4969048D01*
X22342857Y5016667D01*
X22438095Y5016667D01*
X22580952Y4969048D01*
X23152380Y4397620D01*
X23152380Y5016667D01*
D12*
X27850000Y14550000D02*
X26950000Y14550000D01*
X25100000Y26750000D02*
X25100000Y25700000D01*
X25100000Y15950000D02*
X25100000Y17000000D01*
X27850000Y28150000D02*
X26950000Y28150000D01*
D13*
X24830000Y16450000D02*
G75*
G03*
X24830000Y16450000I-180000J0D01*
G01*
D12*
X8150000Y28150000D02*
X9050000Y28150000D01*
X8150000Y14550000D02*
X9050000Y14550000D01*
X10900000Y26750000D02*
X10900000Y25700000D01*
X10900000Y15950000D02*
X10900000Y17000000D01*
D13*
X11530000Y26250000D02*
G75*
G03*
X11530000Y26250000I-180000J0D01*
G01*
D12*
X15300000Y13850000D02*
G75*
G03*
X15300000Y13850000I-1200000J0D01*
G01*
X21400000Y2750000D02*
X21400000Y5950000D01*
X19100000Y7550000D02*
X16500000Y7550000D01*
X19600000Y670000D02*
X16000000Y670000D01*
X14200000Y2750000D02*
X14200000Y5950000D01*
X23000000Y13850000D02*
G75*
G03*
X23000000Y13850000I-1200000J0D01*
G01*
X23000000Y10750000D02*
G75*
G03*
X23000000Y10750000I-1200000J0D01*
G01*
X20000000Y10950000D02*
X20000000Y14150000D01*
X16000000Y14150000D02*
X15800000Y14150000D01*
X20000000Y14150000D02*
X19800000Y14150000D01*
X19800000Y10950000D02*
X20000000Y10950000D01*
X15800000Y10950000D02*
X16000000Y10950000D01*
X17300000Y10950000D02*
X18500000Y10950000D01*
X16000000Y10950000D02*
X16000000Y10150000D01*
X15800000Y14150000D02*
X15800000Y10950000D01*
X15300000Y10750000D02*
G75*
G03*
X15300000Y10750000I-1200000J0D01*
G01*
%LPC*%
D14*
X26150000Y15380000D03*
X26150000Y27320000D03*
D15*
X25550000Y17780000D03*
X25550000Y18800000D03*
X25550000Y19820000D03*
X25550000Y20840000D03*
X25550000Y21860000D03*
X25550000Y22880000D03*
X25550000Y23900000D03*
X25550000Y24920000D03*
D16*
X32950000Y29800000D03*
D17*
X32950000Y29970000D03*
D16*
X32950000Y12900000D03*
D17*
X32950000Y12730000D03*
D14*
X9850000Y27320000D03*
X9850000Y15380000D03*
D18*
X10450000Y24920000D03*
X10450000Y23900000D03*
X10450000Y22880000D03*
X10450000Y21860000D03*
X10450000Y20840000D03*
X10450000Y19820000D03*
X10450000Y18800000D03*
X10450000Y17780000D03*
D17*
X3050000Y12730000D03*
D19*
X3050000Y12900000D03*
X3050000Y29800000D03*
D17*
X3050000Y29970000D03*
D14*
X14100000Y13850000D03*
D20*
X17800000Y4350000D03*
X15260000Y1810000D03*
X20340000Y6890000D03*
X15260000Y6890000D03*
X20340000Y1810000D03*
D14*
X21800000Y13850000D03*
D21*
X3000000Y35050000D03*
X33000000Y35050000D03*
D14*
X21800000Y10750000D03*
D22*
X16630000Y10835000D03*
X19170000Y10835000D03*
X19170000Y14265000D03*
X17900000Y14265000D03*
X16630000Y14265000D03*
D21*
X3000000Y3050000D03*
D14*
X14100000Y10750000D03*
D21*
X33000000Y3050000D03*
M02*
