G04 #@! TF.GenerationSoftware,KiCad,Pcbnew,6.0.11*
G04 #@! TF.CreationDate,2023-02-26T14:58:43+01:00*
G04 #@! TF.ProjectId,patchloop2,70617463-686c-46f6-9f70-322e6b696361,1*
G04 #@! TF.SameCoordinates,PX5f5e100PY5d81fd0*
G04 #@! TF.FileFunction,Legend,Bot*
G04 #@! TF.FilePolarity,Positive*
%FSLAX46Y46*%
G04 Gerber Fmt 4.6, Leading zero omitted, Abs format (unit mm)*
G04 Created by KiCad (PCBNEW 6.0.11) date 2023-02-26 14:58:43*
%MOMM*%
%LPD*%
G01*
G04 APERTURE LIST*
G04 #@! TA.AperFunction,Profile*
%ADD10C,0.100000*%
G04 #@! TD*
%ADD11C,0.150000*%
%ADD12C,2.000000*%
%ADD13C,1.200000*%
%ADD14C,2.250000*%
%ADD15C,5.600000*%
G04 APERTURE END LIST*
D10*
X0Y3050000D02*
G75*
G03*
X3000000Y50000I3000000J0D01*
G01*
X33000000Y50000D02*
G75*
G03*
X36000000Y3050000I0J3000000D01*
G01*
X36000000Y35050000D02*
G75*
G03*
X33000000Y38050000I-3000000J0D01*
G01*
X36000000Y28150000D02*
X28000000Y28150000D01*
X36000000Y14550000D02*
X36000000Y3050000D01*
X28000000Y28150000D02*
X28000000Y14550000D01*
X3000000Y38050000D02*
X33000000Y38050000D01*
X3000000Y38050000D02*
G75*
G03*
X0Y35050000I0J-3000000D01*
G01*
X0Y28150000D02*
X8000000Y28150000D01*
X0Y14550000D02*
X0Y3050000D01*
X36000000Y35050000D02*
X36000000Y28150000D01*
X8000000Y14550000D02*
X0Y14550000D01*
X8000000Y28150000D02*
X8000000Y14550000D01*
X28000000Y14550000D02*
X36000000Y14550000D01*
X3000000Y50000D02*
X33000000Y50000D01*
X0Y35050000D02*
X0Y28150000D01*
%LPC*%
D11*
X22900000Y33612620D02*
X22900000Y34612620D01*
X22519047Y34612620D01*
X22423809Y34565000D01*
X22376190Y34517381D01*
X22328571Y34422143D01*
X22328571Y34279286D01*
X22376190Y34184048D01*
X22423809Y34136429D01*
X22519047Y34088810D01*
X22900000Y34088810D01*
X21471428Y33612620D02*
X21471428Y34136429D01*
X21519047Y34231667D01*
X21614285Y34279286D01*
X21804761Y34279286D01*
X21900000Y34231667D01*
X21471428Y33660239D02*
X21566666Y33612620D01*
X21804761Y33612620D01*
X21900000Y33660239D01*
X21947619Y33755477D01*
X21947619Y33850715D01*
X21900000Y33945953D01*
X21804761Y33993572D01*
X21566666Y33993572D01*
X21471428Y34041191D01*
X21138095Y34279286D02*
X20757142Y34279286D01*
X20995238Y34612620D02*
X20995238Y33755477D01*
X20947619Y33660239D01*
X20852380Y33612620D01*
X20757142Y33612620D01*
X19995238Y33660239D02*
X20090476Y33612620D01*
X20280952Y33612620D01*
X20376190Y33660239D01*
X20423809Y33707858D01*
X20471428Y33803096D01*
X20471428Y34088810D01*
X20423809Y34184048D01*
X20376190Y34231667D01*
X20280952Y34279286D01*
X20090476Y34279286D01*
X19995238Y34231667D01*
X19566666Y33612620D02*
X19566666Y34612620D01*
X19138095Y33612620D02*
X19138095Y34136429D01*
X19185714Y34231667D01*
X19280952Y34279286D01*
X19423809Y34279286D01*
X19519047Y34231667D01*
X19566666Y34184048D01*
X18185714Y33612620D02*
X18661904Y33612620D01*
X18661904Y34612620D01*
X17709523Y33612620D02*
X17804761Y33660239D01*
X17852380Y33707858D01*
X17900000Y33803096D01*
X17900000Y34088810D01*
X17852380Y34184048D01*
X17804761Y34231667D01*
X17709523Y34279286D01*
X17566666Y34279286D01*
X17471428Y34231667D01*
X17423809Y34184048D01*
X17376190Y34088810D01*
X17376190Y33803096D01*
X17423809Y33707858D01*
X17471428Y33660239D01*
X17566666Y33612620D01*
X17709523Y33612620D01*
X16804761Y33612620D02*
X16900000Y33660239D01*
X16947619Y33707858D01*
X16995238Y33803096D01*
X16995238Y34088810D01*
X16947619Y34184048D01*
X16900000Y34231667D01*
X16804761Y34279286D01*
X16661904Y34279286D01*
X16566666Y34231667D01*
X16519047Y34184048D01*
X16471428Y34088810D01*
X16471428Y33803096D01*
X16519047Y33707858D01*
X16566666Y33660239D01*
X16661904Y33612620D01*
X16804761Y33612620D01*
X16042857Y34279286D02*
X16042857Y33279286D01*
X16042857Y34231667D02*
X15947619Y34279286D01*
X15757142Y34279286D01*
X15661904Y34231667D01*
X15614285Y34184048D01*
X15566666Y34088810D01*
X15566666Y33803096D01*
X15614285Y33707858D01*
X15661904Y33660239D01*
X15757142Y33612620D01*
X15947619Y33612620D01*
X16042857Y33660239D01*
X13804761Y33612620D02*
X14138095Y34088810D01*
X14376190Y33612620D02*
X14376190Y34612620D01*
X13995238Y34612620D01*
X13900000Y34565000D01*
X13852380Y34517381D01*
X13804761Y34422143D01*
X13804761Y34279286D01*
X13852380Y34184048D01*
X13900000Y34136429D01*
X13995238Y34088810D01*
X14376190Y34088810D01*
X13423809Y34517381D02*
X13376190Y34565000D01*
X13280952Y34612620D01*
X13042857Y34612620D01*
X12947619Y34565000D01*
X12900000Y34517381D01*
X12852380Y34422143D01*
X12852380Y34326905D01*
X12900000Y34184048D01*
X13471428Y33612620D01*
X12852380Y33612620D01*
X30209523Y32669286D02*
X30209523Y31859762D01*
X30257142Y31764524D01*
X30304761Y31716905D01*
X30400000Y31669286D01*
X30542857Y31669286D01*
X30638095Y31716905D01*
X30209523Y32050239D02*
X30304761Y32002620D01*
X30495238Y32002620D01*
X30590476Y32050239D01*
X30638095Y32097858D01*
X30685714Y32193096D01*
X30685714Y32478810D01*
X30638095Y32574048D01*
X30590476Y32621667D01*
X30495238Y32669286D01*
X30304761Y32669286D01*
X30209523Y32621667D01*
X29733333Y32002620D02*
X29733333Y32669286D01*
X29733333Y33002620D02*
X29780952Y32955000D01*
X29733333Y32907381D01*
X29685714Y32955000D01*
X29733333Y33002620D01*
X29733333Y32907381D01*
X29400000Y32669286D02*
X29019047Y32669286D01*
X29257142Y33002620D02*
X29257142Y32145477D01*
X29209523Y32050239D01*
X29114285Y32002620D01*
X29019047Y32002620D01*
X28685714Y32002620D02*
X28685714Y33002620D01*
X28257142Y32002620D02*
X28257142Y32526429D01*
X28304761Y32621667D01*
X28400000Y32669286D01*
X28542857Y32669286D01*
X28638095Y32621667D01*
X28685714Y32574048D01*
X27352380Y32669286D02*
X27352380Y32002620D01*
X27780952Y32669286D02*
X27780952Y32145477D01*
X27733333Y32050239D01*
X27638095Y32002620D01*
X27495238Y32002620D01*
X27400000Y32050239D01*
X27352380Y32097858D01*
X26876190Y32002620D02*
X26876190Y33002620D01*
X26876190Y32621667D02*
X26780952Y32669286D01*
X26590476Y32669286D01*
X26495238Y32621667D01*
X26447619Y32574048D01*
X26400000Y32478810D01*
X26400000Y32193096D01*
X26447619Y32097858D01*
X26495238Y32050239D01*
X26590476Y32002620D01*
X26780952Y32002620D01*
X26876190Y32050239D01*
X25971428Y32097858D02*
X25923809Y32050239D01*
X25971428Y32002620D01*
X26019047Y32050239D01*
X25971428Y32097858D01*
X25971428Y32002620D01*
X25066666Y32050239D02*
X25161904Y32002620D01*
X25352380Y32002620D01*
X25447619Y32050239D01*
X25495238Y32097858D01*
X25542857Y32193096D01*
X25542857Y32478810D01*
X25495238Y32574048D01*
X25447619Y32621667D01*
X25352380Y32669286D01*
X25161904Y32669286D01*
X25066666Y32621667D01*
X24495238Y32002620D02*
X24590476Y32050239D01*
X24638095Y32097858D01*
X24685714Y32193096D01*
X24685714Y32478810D01*
X24638095Y32574048D01*
X24590476Y32621667D01*
X24495238Y32669286D01*
X24352380Y32669286D01*
X24257142Y32621667D01*
X24209523Y32574048D01*
X24161904Y32478810D01*
X24161904Y32193096D01*
X24209523Y32097858D01*
X24257142Y32050239D01*
X24352380Y32002620D01*
X24495238Y32002620D01*
X23733333Y32002620D02*
X23733333Y32669286D01*
X23733333Y32574048D02*
X23685714Y32621667D01*
X23590476Y32669286D01*
X23447619Y32669286D01*
X23352380Y32621667D01*
X23304761Y32526429D01*
X23304761Y32002620D01*
X23304761Y32526429D02*
X23257142Y32621667D01*
X23161904Y32669286D01*
X23019047Y32669286D01*
X22923809Y32621667D01*
X22876190Y32526429D01*
X22876190Y32002620D01*
X21685714Y33050239D02*
X22542857Y31764524D01*
X21400000Y32050239D02*
X21257142Y32002620D01*
X21019047Y32002620D01*
X20923809Y32050239D01*
X20876190Y32097858D01*
X20828571Y32193096D01*
X20828571Y32288334D01*
X20876190Y32383572D01*
X20923809Y32431191D01*
X21019047Y32478810D01*
X21209523Y32526429D01*
X21304761Y32574048D01*
X21352380Y32621667D01*
X21400000Y32716905D01*
X21400000Y32812143D01*
X21352380Y32907381D01*
X21304761Y32955000D01*
X21209523Y33002620D01*
X20971428Y33002620D01*
X20828571Y32955000D01*
X20400000Y32002620D02*
X20400000Y32669286D01*
X20400000Y32574048D02*
X20352380Y32621667D01*
X20257142Y32669286D01*
X20114285Y32669286D01*
X20019047Y32621667D01*
X19971428Y32526429D01*
X19971428Y32002620D01*
X19971428Y32526429D02*
X19923809Y32621667D01*
X19828571Y32669286D01*
X19685714Y32669286D01*
X19590476Y32621667D01*
X19542857Y32526429D01*
X19542857Y32002620D01*
X19066666Y32002620D02*
X19066666Y32669286D01*
X19066666Y33002620D02*
X19114285Y32955000D01*
X19066666Y32907381D01*
X19019047Y32955000D01*
X19066666Y33002620D01*
X19066666Y32907381D01*
X18733333Y32669286D02*
X18352380Y32669286D01*
X18590476Y33002620D02*
X18590476Y32145477D01*
X18542857Y32050239D01*
X18447619Y32002620D01*
X18352380Y32002620D01*
X18019047Y32002620D02*
X18019047Y33002620D01*
X17590476Y32002620D02*
X17590476Y32526429D01*
X17638095Y32621667D01*
X17733333Y32669286D01*
X17876190Y32669286D01*
X17971428Y32621667D01*
X18019047Y32574048D01*
X16542857Y32097858D02*
X16590476Y32050239D01*
X16733333Y32002620D01*
X16828571Y32002620D01*
X16971428Y32050239D01*
X17066666Y32145477D01*
X17114285Y32240715D01*
X17161904Y32431191D01*
X17161904Y32574048D01*
X17114285Y32764524D01*
X17066666Y32859762D01*
X16971428Y32955000D01*
X16828571Y33002620D01*
X16733333Y33002620D01*
X16590476Y32955000D01*
X16542857Y32907381D01*
X16114285Y32002620D02*
X16114285Y33002620D01*
X15685714Y32002620D02*
X15685714Y32526429D01*
X15733333Y32621667D01*
X15828571Y32669286D01*
X15971428Y32669286D01*
X16066666Y32621667D01*
X16114285Y32574048D01*
X14780952Y32002620D02*
X14780952Y32526429D01*
X14828571Y32621667D01*
X14923809Y32669286D01*
X15114285Y32669286D01*
X15209523Y32621667D01*
X14780952Y32050239D02*
X14876190Y32002620D01*
X15114285Y32002620D01*
X15209523Y32050239D01*
X15257142Y32145477D01*
X15257142Y32240715D01*
X15209523Y32335953D01*
X15114285Y32383572D01*
X14876190Y32383572D01*
X14780952Y32431191D01*
X14304761Y32002620D02*
X14304761Y32669286D01*
X14304761Y32478810D02*
X14257142Y32574048D01*
X14209523Y32621667D01*
X14114285Y32669286D01*
X14019047Y32669286D01*
X13828571Y32669286D02*
X13447619Y32669286D01*
X13685714Y33002620D02*
X13685714Y32145477D01*
X13638095Y32050239D01*
X13542857Y32002620D01*
X13447619Y32002620D01*
X12400000Y33050239D02*
X13257142Y31764524D01*
X12066666Y32669286D02*
X12066666Y31669286D01*
X12066666Y32621667D02*
X11971428Y32669286D01*
X11780952Y32669286D01*
X11685714Y32621667D01*
X11638095Y32574048D01*
X11590476Y32478810D01*
X11590476Y32193096D01*
X11638095Y32097858D01*
X11685714Y32050239D01*
X11780952Y32002620D01*
X11971428Y32002620D01*
X12066666Y32050239D01*
X10733333Y32002620D02*
X10733333Y32526429D01*
X10780952Y32621667D01*
X10876190Y32669286D01*
X11066666Y32669286D01*
X11161904Y32621667D01*
X10733333Y32050239D02*
X10828571Y32002620D01*
X11066666Y32002620D01*
X11161904Y32050239D01*
X11209523Y32145477D01*
X11209523Y32240715D01*
X11161904Y32335953D01*
X11066666Y32383572D01*
X10828571Y32383572D01*
X10733333Y32431191D01*
X10400000Y32669286D02*
X10019047Y32669286D01*
X10257142Y33002620D02*
X10257142Y32145477D01*
X10209523Y32050239D01*
X10114285Y32002620D01*
X10019047Y32002620D01*
X9257142Y32050239D02*
X9352380Y32002620D01*
X9542857Y32002620D01*
X9638095Y32050239D01*
X9685714Y32097858D01*
X9733333Y32193096D01*
X9733333Y32478810D01*
X9685714Y32574048D01*
X9638095Y32621667D01*
X9542857Y32669286D01*
X9352380Y32669286D01*
X9257142Y32621667D01*
X8828571Y32002620D02*
X8828571Y33002620D01*
X8400000Y32002620D02*
X8400000Y32526429D01*
X8447619Y32621667D01*
X8542857Y32669286D01*
X8685714Y32669286D01*
X8780952Y32621667D01*
X8828571Y32574048D01*
X7780952Y32002620D02*
X7876190Y32050239D01*
X7923809Y32145477D01*
X7923809Y33002620D01*
X7257142Y32002620D02*
X7352380Y32050239D01*
X7400000Y32097858D01*
X7447619Y32193096D01*
X7447619Y32478810D01*
X7400000Y32574048D01*
X7352380Y32621667D01*
X7257142Y32669286D01*
X7114285Y32669286D01*
X7019047Y32621667D01*
X6971428Y32574048D01*
X6923809Y32478810D01*
X6923809Y32193096D01*
X6971428Y32097858D01*
X7019047Y32050239D01*
X7114285Y32002620D01*
X7257142Y32002620D01*
X6352380Y32002620D02*
X6447619Y32050239D01*
X6495238Y32097858D01*
X6542857Y32193096D01*
X6542857Y32478810D01*
X6495238Y32574048D01*
X6447619Y32621667D01*
X6352380Y32669286D01*
X6209523Y32669286D01*
X6114285Y32621667D01*
X6066666Y32574048D01*
X6019047Y32478810D01*
X6019047Y32193096D01*
X6066666Y32097858D01*
X6114285Y32050239D01*
X6209523Y32002620D01*
X6352380Y32002620D01*
X5590476Y32669286D02*
X5590476Y31669286D01*
X5590476Y32621667D02*
X5495238Y32669286D01*
X5304761Y32669286D01*
X5209523Y32621667D01*
X5161904Y32574048D01*
X5114285Y32478810D01*
X5114285Y32193096D01*
X5161904Y32097858D01*
X5209523Y32050239D01*
X5304761Y32002620D01*
X5495238Y32002620D01*
X5590476Y32050239D01*
X26471428Y30011667D02*
X26519047Y30059286D01*
X26614285Y30202143D01*
X26661904Y30297381D01*
X26709523Y30440239D01*
X26757142Y30678334D01*
X26757142Y30868810D01*
X26709523Y31106905D01*
X26661904Y31249762D01*
X26614285Y31345000D01*
X26519047Y31487858D01*
X26471428Y31535477D01*
X25757142Y30916429D02*
X26090476Y30916429D01*
X26090476Y30392620D02*
X26090476Y31392620D01*
X25614285Y31392620D01*
X25090476Y30392620D02*
X25185714Y30440239D01*
X25233333Y30487858D01*
X25280952Y30583096D01*
X25280952Y30868810D01*
X25233333Y30964048D01*
X25185714Y31011667D01*
X25090476Y31059286D01*
X24947619Y31059286D01*
X24852380Y31011667D01*
X24804761Y30964048D01*
X24757142Y30868810D01*
X24757142Y30583096D01*
X24804761Y30487858D01*
X24852380Y30440239D01*
X24947619Y30392620D01*
X25090476Y30392620D01*
X24328571Y30392620D02*
X24328571Y31059286D01*
X24328571Y30868810D02*
X24280952Y30964048D01*
X24233333Y31011667D01*
X24138095Y31059286D01*
X24042857Y31059286D01*
X23709523Y30392620D02*
X23709523Y31392620D01*
X23614285Y30773572D02*
X23328571Y30392620D01*
X23328571Y31059286D02*
X23709523Y30678334D01*
X22233333Y31059286D02*
X21995238Y30392620D01*
X21757142Y31059286D01*
X21233333Y30392620D02*
X21328571Y30440239D01*
X21376190Y30487858D01*
X21423809Y30583096D01*
X21423809Y30868810D01*
X21376190Y30964048D01*
X21328571Y31011667D01*
X21233333Y31059286D01*
X21090476Y31059286D01*
X20995238Y31011667D01*
X20947619Y30964048D01*
X20900000Y30868810D01*
X20900000Y30583096D01*
X20947619Y30487858D01*
X20995238Y30440239D01*
X21090476Y30392620D01*
X21233333Y30392620D01*
X20471428Y31059286D02*
X20471428Y30392620D01*
X20471428Y30964048D02*
X20423809Y31011667D01*
X20328571Y31059286D01*
X20185714Y31059286D01*
X20090476Y31011667D01*
X20042857Y30916429D01*
X20042857Y30392620D01*
X18804761Y30392620D02*
X18804761Y31392620D01*
X18566666Y31392620D01*
X18423809Y31345000D01*
X18328571Y31249762D01*
X18280952Y31154524D01*
X18233333Y30964048D01*
X18233333Y30821191D01*
X18280952Y30630715D01*
X18328571Y30535477D01*
X18423809Y30440239D01*
X18566666Y30392620D01*
X18804761Y30392620D01*
X17233333Y30487858D02*
X17280952Y30440239D01*
X17423809Y30392620D01*
X17519047Y30392620D01*
X17661904Y30440239D01*
X17757142Y30535477D01*
X17804761Y30630715D01*
X17852380Y30821191D01*
X17852380Y30964048D01*
X17804761Y31154524D01*
X17757142Y31249762D01*
X17661904Y31345000D01*
X17519047Y31392620D01*
X17423809Y31392620D01*
X17280952Y31345000D01*
X17233333Y31297381D01*
X16376190Y31059286D02*
X16376190Y30392620D01*
X16614285Y31440239D02*
X16852380Y30725953D01*
X16233333Y30725953D01*
X15852380Y30392620D02*
X15852380Y31392620D01*
X15852380Y30916429D02*
X15280952Y30916429D01*
X15280952Y30392620D02*
X15280952Y31392620D01*
X14804761Y30392620D02*
X14804761Y31392620D01*
X14423809Y31392620D01*
X14328571Y31345000D01*
X14280952Y31297381D01*
X14233333Y31202143D01*
X14233333Y31059286D01*
X14280952Y30964048D01*
X14328571Y30916429D01*
X14423809Y30868810D01*
X14804761Y30868810D01*
X13090476Y31297381D02*
X13042857Y31345000D01*
X12947619Y31392620D01*
X12709523Y31392620D01*
X12614285Y31345000D01*
X12566666Y31297381D01*
X12519047Y31202143D01*
X12519047Y31106905D01*
X12566666Y30964048D01*
X13138095Y30392620D01*
X12519047Y30392620D01*
X11900000Y31392620D02*
X11804761Y31392620D01*
X11709523Y31345000D01*
X11661904Y31297381D01*
X11614285Y31202143D01*
X11566666Y31011667D01*
X11566666Y30773572D01*
X11614285Y30583096D01*
X11661904Y30487858D01*
X11709523Y30440239D01*
X11804761Y30392620D01*
X11900000Y30392620D01*
X11995238Y30440239D01*
X12042857Y30487858D01*
X12090476Y30583096D01*
X12138095Y30773572D01*
X12138095Y31011667D01*
X12090476Y31202143D01*
X12042857Y31297381D01*
X11995238Y31345000D01*
X11900000Y31392620D01*
X11185714Y31297381D02*
X11138095Y31345000D01*
X11042857Y31392620D01*
X10804761Y31392620D01*
X10709523Y31345000D01*
X10661904Y31297381D01*
X10614285Y31202143D01*
X10614285Y31106905D01*
X10661904Y30964048D01*
X11233333Y30392620D01*
X10614285Y30392620D01*
X10280952Y31392620D02*
X9661904Y31392620D01*
X9995238Y31011667D01*
X9852380Y31011667D01*
X9757142Y30964048D01*
X9709523Y30916429D01*
X9661904Y30821191D01*
X9661904Y30583096D01*
X9709523Y30487858D01*
X9757142Y30440239D01*
X9852380Y30392620D01*
X10138095Y30392620D01*
X10233333Y30440239D01*
X10280952Y30487858D01*
X9328571Y30011667D02*
X9280952Y30059286D01*
X9185714Y30202143D01*
X9138095Y30297381D01*
X9090476Y30440239D01*
X9042857Y30678334D01*
X9042857Y30868810D01*
X9090476Y31106905D01*
X9138095Y31249762D01*
X9185714Y31345000D01*
X9280952Y31487858D01*
X9328571Y31535477D01*
X22733333Y28877858D02*
X22780952Y28830239D01*
X22923809Y28782620D01*
X23019047Y28782620D01*
X23161904Y28830239D01*
X23257142Y28925477D01*
X23304761Y29020715D01*
X23352380Y29211191D01*
X23352380Y29354048D01*
X23304761Y29544524D01*
X23257142Y29639762D01*
X23161904Y29735000D01*
X23019047Y29782620D01*
X22923809Y29782620D01*
X22780952Y29735000D01*
X22733333Y29687381D01*
X21733333Y28877858D02*
X21780952Y28830239D01*
X21923809Y28782620D01*
X22019047Y28782620D01*
X22161904Y28830239D01*
X22257142Y28925477D01*
X22304761Y29020715D01*
X22352380Y29211191D01*
X22352380Y29354048D01*
X22304761Y29544524D01*
X22257142Y29639762D01*
X22161904Y29735000D01*
X22019047Y29782620D01*
X21923809Y29782620D01*
X21780952Y29735000D01*
X21733333Y29687381D01*
X21304761Y29163572D02*
X20542857Y29163572D01*
X19733333Y29306429D02*
X19590476Y29258810D01*
X19542857Y29211191D01*
X19495238Y29115953D01*
X19495238Y28973096D01*
X19542857Y28877858D01*
X19590476Y28830239D01*
X19685714Y28782620D01*
X20066666Y28782620D01*
X20066666Y29782620D01*
X19733333Y29782620D01*
X19638095Y29735000D01*
X19590476Y29687381D01*
X19542857Y29592143D01*
X19542857Y29496905D01*
X19590476Y29401667D01*
X19638095Y29354048D01*
X19733333Y29306429D01*
X20066666Y29306429D01*
X18876190Y29258810D02*
X18876190Y28782620D01*
X19209523Y29782620D02*
X18876190Y29258810D01*
X18542857Y29782620D01*
X18209523Y29163572D02*
X17447619Y29163572D01*
X17019047Y28830239D02*
X16876190Y28782620D01*
X16638095Y28782620D01*
X16542857Y28830239D01*
X16495238Y28877858D01*
X16447619Y28973096D01*
X16447619Y29068334D01*
X16495238Y29163572D01*
X16542857Y29211191D01*
X16638095Y29258810D01*
X16828571Y29306429D01*
X16923809Y29354048D01*
X16971428Y29401667D01*
X17019047Y29496905D01*
X17019047Y29592143D01*
X16971428Y29687381D01*
X16923809Y29735000D01*
X16828571Y29782620D01*
X16590476Y29782620D01*
X16447619Y29735000D01*
X16066666Y29068334D02*
X15590476Y29068334D01*
X16161904Y28782620D02*
X15828571Y29782620D01*
X15495238Y28782620D01*
X14495238Y29782620D02*
X13876190Y29782620D01*
X14209523Y29401667D01*
X14066666Y29401667D01*
X13971428Y29354048D01*
X13923809Y29306429D01*
X13876190Y29211191D01*
X13876190Y28973096D01*
X13923809Y28877858D01*
X13971428Y28830239D01*
X14066666Y28782620D01*
X14352380Y28782620D01*
X14447619Y28830239D01*
X14495238Y28877858D01*
X13447619Y28877858D02*
X13400000Y28830239D01*
X13447619Y28782620D01*
X13495238Y28830239D01*
X13447619Y28877858D01*
X13447619Y28782620D01*
X12780952Y29782620D02*
X12685714Y29782620D01*
X12590476Y29735000D01*
X12542857Y29687381D01*
X12495238Y29592143D01*
X12447619Y29401667D01*
X12447619Y29163572D01*
X12495238Y28973096D01*
X12542857Y28877858D01*
X12590476Y28830239D01*
X12685714Y28782620D01*
X12780952Y28782620D01*
X12876190Y28830239D01*
X12923809Y28877858D01*
X12971428Y28973096D01*
X13019047Y29163572D01*
X13019047Y29401667D01*
X12971428Y29592143D01*
X12923809Y29687381D01*
X12876190Y29735000D01*
X12780952Y29782620D01*
D12*
X26150000Y15380000D03*
X26150000Y27320000D03*
D13*
X32950000Y29970000D03*
X32950000Y12730000D03*
D12*
X9850000Y27320000D03*
X9850000Y15380000D03*
D13*
X3050000Y12730000D03*
X3050000Y29970000D03*
D12*
X14100000Y13850000D03*
D14*
X17800000Y4350000D03*
X15260000Y1810000D03*
X20340000Y6890000D03*
X15260000Y6890000D03*
X20340000Y1810000D03*
D12*
X21800000Y13850000D03*
D15*
X3000000Y35050000D03*
X33000000Y35050000D03*
D12*
X21800000Y10750000D03*
D15*
X3000000Y3050000D03*
D12*
X14100000Y10750000D03*
D15*
X33000000Y3050000D03*
M02*
